<?xml version="1.0" encoding="utf-8"?>
<!-- Generator: Adobe Illustrator 23.0.1, SVG Export Plug-In . SVG Version: 6.00 Build 0)  -->
<svg version="1.1" id="Layer_1" xmlns="http://www.w3.org/2000/svg" xmlns:xlink="http://www.w3.org/1999/xlink" x="0px" y="0px"
	 viewBox="0 0 25 25" style="enable-background:new 0 0 25 25;" xml:space="preserve">
<path d="M24.88,14.24C24.96,13.67,25,13.09,25,12.5c0-0.59-0.04-1.17-0.12-1.74l-3.94-0.91c-0.16-0.5-0.36-0.99-0.6-1.44l2.15-3.43
	c-0.7-0.93-1.53-1.76-2.46-2.46l-3.43,2.15c-0.46-0.24-0.94-0.44-1.44-0.6l-0.91-3.94C13.67,0.04,13.09,0,12.5,0
	s-1.17,0.04-1.74,0.12L9.85,4.06c-0.5,0.16-0.99,0.36-1.44,0.6L4.98,2.52c-0.93,0.7-1.76,1.53-2.46,2.46l2.15,3.43
	c-0.24,0.46-0.44,0.94-0.6,1.44l-3.94,0.91C0.04,11.33,0,11.91,0,12.5s0.04,1.17,0.12,1.74l3.94,0.91c0.16,0.5,0.36,0.99,0.6,1.44
	l-2.15,3.43c0.7,0.93,1.53,1.76,2.46,2.46l3.43-2.15c0.46,0.24,0.94,0.44,1.44,0.6l0.91,3.94C11.33,24.96,11.91,25,12.5,25
	c0.59,0,1.17-0.04,1.74-0.12l0.91-3.94c0.5-0.16,0.99-0.36,1.44-0.6l3.43,2.15c0.93-0.7,1.76-1.53,2.46-2.46l-2.15-3.43
	c0.24-0.46,0.44-0.94,0.6-1.44L24.88,14.24z M12.5,17.57c-2.8,0-5.07-2.27-5.07-5.07S9.7,7.43,12.5,7.43s5.07,2.27,5.07,5.07
	S15.3,17.57,12.5,17.57z"/>
</svg>
